<?xml version="1.0" encoding="UTF-8"?>
<svg width="56px" height="55px" viewBox="0 0 56 55" version="1.1" xmlns="http://www.w3.org/2000/svg" xmlns:xlink="http://www.w3.org/1999/xlink">
    <!-- Generator: Sketch 48.2 (47327) - http://www.bohemiancoding.com/sketch -->
    <title>logo</title>
    <desc>Created with Sketch.</desc>
    <defs></defs>
    <g id="Desktop" stroke="none" stroke-width="1" fill="none" fill-rule="evenodd" transform="translate(-132.000000, -106.000000)">
        <g id="Group-10" transform="translate(119.000000, 106.000000)" fill="#FFAB78">
            <g id="logo" transform="translate(13.574219, 0.062500)">
                <path d="M27.1683557,14.6255122 L27.1683557,40.6426113 L21.4445939,40.6426113 L21.4445939,39.6019273 L22.0331007,39.6019273 C22.2334323,39.6019273 22.6278516,39.2761932 23.1877395,38.6668728 C23.7502292,38.0627557 24.0463038,37.618904 24.0463038,37.3821484 L24.0463038,16.335356 L20.7780358,16.3103796 C20.5038156,16.3103796 19.9439276,16.8655845 19.1077381,17.9484161 C18.2689468,19.0312478 17.519134,20.1968138 16.8655845,21.1911874 C16.2115146,22.1876422 15.7551747,22.9509839 15.5064512,23.4713259 L14.092682,23.4713259 C14.2212065,22.430642 14.3466089,21.5434589 14.4626452,20.487685 C14.6994008,18.2210753 14.8180388,15.6661962 14.8180388,14.1051703 L16.196945,14.1051703 C16.6928309,14.6255122 18.2247177,14.5698356 20.7952071,14.5698356 L24.0140426,14.6255122 L27.1683557,14.6255122 Z" id="Fill-26"></path>
                <path d="M40.827853,23.4713259 L39.4317755,23.4713259 C39.1825317,22.9509839 38.7334766,22.1876422 38.0773253,21.1911874 C37.4237758,20.1968138 36.6786461,19.0827616 35.8424565,17.9994096 C35.0036652,16.916578 34.4364925,16.3363967 34.167996,16.3363967 L30.8107496,16.335356 L30.8107496,37.3821484 C30.8107496,37.618904 31.1016207,38.0627557 31.6568256,38.6668728 C32.2089085,39.2761932 32.5986446,39.6019273 32.7984559,39.6019273 L33.4124595,39.6019273 L33.4124595,40.6426113 L28.2090397,40.6426113 L28.2090397,14.6255122 L30.837287,14.6255122 L34.1799639,14.5698356 C36.594871,14.5698356 38.1168713,14.6255122 38.7407614,14.1051703 L40.1024963,14.1051703 C40.1024963,15.6661962 40.2258174,18.0998356 40.4750612,20.487685 C40.6155535,21.7927027 40.7341915,22.430642 40.827853,23.4713259" id="Fill-27"></path>
                <path d="M27.4605277,2.95033903 C13.9451651,2.95033903 2.95033903,13.9456854 2.95033903,27.4605277 C2.95033903,40.97537 13.9451651,51.9707164 27.4605277,51.9707164 C40.97537,51.9707164 51.9707164,40.97537 51.9707164,27.4605277 C51.9707164,13.9456854 40.97537,2.95033903 27.4605277,2.95033903 M27.4605277,54.9210554 C12.3185761,54.9210554 0,42.601959 0,27.4605277 C0,12.3185761 12.3185761,0 27.4605277,0 C42.6024794,0 54.9205351,12.3185761 54.9205351,27.4605277 C54.9205351,42.601959 42.6024794,54.9210554 27.4605277,54.9210554" id="Fill-28"></path>
            </g>
        </g>
    </g>
</svg>